# xmcd
#
# Track frame offsets:
#	150
#	2489
#	16286
#	29725
#	47525
#	59626
#	71630
#	84384
#	85728
#	97822
#	112733
#	128236
#
# Disc length: 1832 seconds
#
# Revision: 0
# Processed by: cddbd v1.5.2PL0 Copyright (c) Steve Scherf et al.
# Submitted via: EasyCDDAExtractor 10.5.1.1
#
DISCID=8c07260c
DTITLE=The Twin Cities Playboys - Texas Memories
DYEAR=1900
DGENRE=
TTITLE0=Violet Two Step
TTITLE1=Galveston Waltz
TTITLE2=Hello Trouble
TTITLE3=Waltz Across Texas
TTITLE4=Crazy Arms
TTITLE5=Gran Mamou
TTITLE6=Lacassine Special
TTITLE7=Jolie Blon
TTITLE8=Walleye Two Step
TTITLE9=10
TTITLE10=11
TTITLE11=12
EXTD=
EXTT0=
EXTT1=
EXTT2=
EXTT3=
EXTT4=
EXTT5=
EXTT6=
EXTT7=
EXTT8=
EXTT9=
EXTT10=
EXTT11=
PLAYORDER=
